Coordinates
version=1
nRows=5
nColumns=40
inDegrees=yes

Units are S.I. units (second, meters, Newtons, ...)
Angles are in degrees.

endheader
time	pelvis_tilt	pelvis_list	pelvis_rotation	pelvis_tx	pelvis_ty	pelvis_tz	hip_flexion_r	hip_adduction_r	hip_rotation_r	knee_angle_r	knee_angle_r_beta	ankle_angle_r	subtalar_angle_r	mtp_angle_r	hip_flexion_l	hip_adduction_l	hip_rotation_l	knee_angle_l	knee_angle_l_beta	ankle_angle_l	subtalar_angle_l	mtp_angle_l	lumbar_extension	lumbar_bending	lumbar_rotation	arm_flex_r	arm_add_r	arm_rot_r	elbow_flex_r	pro_sup_r	wrist_flex_r	wrist_dev_r	arm_flex_l	arm_add_l	arm_rot_l	elbow_flex_l	pro_sup_l	wrist_flex_l	wrist_dev_l
     11.80500000	     -2.29751928	     -4.30307746	     -4.78694754	      1.01431829	      0.93212625	      0.50456816	     15.14766754	      3.05171464	     -9.45735062	     16.98911763	     16.98911763	      6.50806051	      0.74747281	     -5.51674721	      6.41296146	    -10.27594920	    -10.24638496	     35.73178824	     35.73178824	     13.70398616	    -12.80698450	     -6.44363886	     -9.29876537	      5.84426128	     -0.30161518	      2.42912877	    -14.61297171	     -4.88849644	     43.16488199	     45.71099557	      0.00000000	      0.00000000	     17.45799048	    -14.32154239	     -7.37507415	     39.43136578	     46.94056940	      0.00000000	      0.00000000
     11.81857143	     -2.19565785	     -4.38678073	     -4.26490500	      1.01437464	      0.93258298	      0.50690896	     14.41086339	      3.20512600	    -10.02270661	     16.60050570	     16.60050570	      6.77240074	      1.01405037	     -5.67135712	      8.29550281	    -10.89044060	     -8.93439003	     39.60853005	     39.60853005	     12.12878521	    -13.89205438	     -6.86579888	     -9.25475369	      5.95547937	     -0.38382322	      3.75507990	    -14.98463313	     -5.08507821	     44.06741312	     45.69469832	      0.00000000	      0.00000000	     16.39491540	    -13.87497131	     -7.15180356	     38.46047954	     46.89153031	      0.00000000	      0.00000000
     11.83214286	     -1.93648360	     -4.46713168	     -3.78810798	      1.01422446	      0.93310510	      0.50920933	     13.58866453	      3.35131174	    -10.49949211	     16.35126370	     16.35126370	      7.06960015	      1.26147419	     -5.82633978	     10.05005734	    -11.44206463	     -7.69077211	     43.41267337	     43.41267337	     10.51941250	    -14.76709860	     -7.00757354	     -9.49026539	      6.02713424	     -0.18094614	      5.20830849	    -15.47136839	     -5.25424583	     44.89336994	     45.68102981	      0.00000000	      0.00000000	     15.59115638	    -13.37923215	     -6.93972675	     37.71856670	     46.84932988	      0.00000000	      0.00000000
     11.84571429	     -1.83290788	     -4.59185791	     -3.23783125	      1.01383421	      0.93329611	      0.51127855	     12.94878020	      3.53518361	    -11.08511056	     16.09508116	     16.09508116	      7.34883066	      1.53378943	     -5.99361046	     12.08089652	    -11.94757648	     -6.29924593	     47.13040128	     47.13040128	      8.91242696	    -15.59556487	     -6.86912392	     -9.55257144	      6.18062753	     -0.06739307	      6.60436069	    -15.97231363	     -5.42541024	     45.79419139	     45.66420378	      0.00000000	      0.00000000	     14.64475345	    -12.86162192	     -6.68993117	     36.87030484	     46.79997445	      0.00000000	      0.00000000
     11.85928571	     -1.73743991	     -4.67668689	     -2.72143182	      1.01326151	      0.93340617	      0.51322641	     12.37887050	      3.67076470	    -11.67371328	     15.91409109	     15.91409109	      7.60343274	      1.81630969	     -6.16041294	     14.10163863	    -12.31849280	     -4.97152666	     50.56877947	     50.56877947	      7.47583876	    -16.30475908	     -6.39373707	     -9.61268628	      6.27772905	      0.04476391	      7.97469910	    -16.47047723	     -5.58522301	     46.74594361	     45.64471308	      0.00000000	      0.00000000	     13.65657159	    -12.34649066	     -6.41416953	     35.99851291	     46.74630037	      0.00000000	      0.00000000
